<svg id="Layer_3" enable-background="new 0 0 64 64" height="512" viewBox="0 0 64 64" width="512" xmlns="http://www.w3.org/2000/svg"><g><path d="m35 41v21h-6v-21" fill="#e7e4dd"/><path d="m26 37 1.457 2.428c.957 1.595 2.682 2.572 4.543 2.572 1.861 0 3.586-.977 4.543-2.572l1.457-2.428" fill="#e47c6e"/><circle cx="32" cy="20" fill="#c66b60" r="18"/><circle cx="32" cy="20" fill="#e7e4dd" r="14"/><path d="m39 23v-2c0-.552-.448-1-1-1h-11v3z" fill="#59ac98"/><path d="m36 11h-2v-2h-4v2h-2v4h2v2h4v-2h2z" fill="#e47c6e"/><path d="m24 23h16v4h-16z" fill="#a8b0bc"/><path d="m24 23v-4.5c0-.828.672-1.5 1.5-1.5.828 0 1.5.672 1.5 1.5v4.5" fill="#758190"/><g><path d="m25 27h2v3h-2z" fill="#758190"/></g><g><path d="m37 27h2v3h-2z" fill="#758190"/></g><g><path d="m51 20c0-10.478-8.523-19-19-19s-19 8.522-19 19c0 8.109 5.116 15.029 12.284 17.75l1.315 2.191c.373.621.854 1.155 1.401 1.605v20.453c0 .553.447 1 1 1h6c.265 0 .52-.104.707-.292s.293-.443.293-.709l-.001-20.452c.547-.45 1.029-.984 1.402-1.606l1.314-2.191c7.167-2.72 12.285-9.64 12.285-17.749zm-17 40.998h-4v-18.343c.639.216 1.311.343 2 .343s1.361-.127 1.999-.343zm1.686-22.086c-.772 1.287-2.185 2.086-3.686 2.086s-2.914-.799-3.686-2.086l-.188-.314c1.252.26 2.547.4 3.875.4 1.327 0 2.622-.139 3.874-.399zm-3.686-1.914c-9.374 0-17-7.625-17-16.999s7.626-17 17-17 17 7.626 17 17-7.626 16.999-17 16.999z"/><path d="m32 5c-8.271 0-15 6.729-15 15s6.729 14.999 15 14.999 15-6.728 15-14.999c-.001-8.272-6.729-15-15-15zm0 27.999c-7.168 0-13-5.832-13-12.999 0-7.168 5.832-13 13-13s13 5.832 13 13c-.001 7.167-5.833 12.999-13 12.999z"/><path d="m28 15.999h1v1c0 .553.447 1 1 1h4c.553 0 1-.447 1-1v-1h1c.553 0 1-.447 1-1v-4c0-.553-.447-1-1-1h-1v-.999c0-.553-.447-1-1-1h-4c-.553 0-1 .447-1 1v1h-1c-.553 0-1 .447-1 1v4c0 .552.447.999 1 .999zm1-3.999h1c.552 0 1-.448 1-1v-1h2v1c0 .552.448 1 1 1h1v2h-1c-.552 0-1 .448-1 1v1h-2v-1c0-.552-.448-1-1-1h-1z"/><path d="m40 22v-1c0-1.103-.897-2-2-2h-10v-.5c0-1.379-1.121-2.5-2.5-2.5s-2.5 1.121-2.5 2.5v4.5 4c0 .553.447 1 1 1h1v2h2v-2h10v2h2v-2h1c.553 0 1-.447 1-1v-4c0-.553-.448-1-1-1zm-2.001-1v1h-9.999v-1zm-12.499-3c.275 0 .499.224.499.5l.001 3.5h-1v-3.5c0-.276.224-.5.5-.5zm13.5 7.999h-14v-2h14z"/></g></g></svg>